<svg width="1440" height="655" viewBox="0 0 1440 655" fill="none" xmlns="http://www.w3.org/2000/svg">
<g clip-path="url(#clip0_288_10)">
<path opacity="0.16" d="M1166.02 394.044C1166.02 371.729 1172.25 353.307 1184.71 338.776C1197.68 324.246 1216.88 308.418 1242.31 291.293C1263.59 277.282 1279.41 264.567 1289.79 253.151C1300.69 241.734 1306.14 227.982 1306.14 211.895C1306.14 170.379 1278.63 149.621 1223.63 149.621C1195.08 149.621 1173.03 157.146 1157.46 172.196C1141.89 186.726 1134.11 206.446 1134.11 231.355C1134.11 239.139 1134.89 248.999 1136.44 260.935C1129.7 262.492 1122.43 263.27 1114.65 263.27C1091.3 263.27 1071.32 257.562 1054.71 246.145C1038.62 234.209 1030.58 218.641 1030.58 199.44C1030.58 175.05 1039.14 152.216 1056.27 130.939C1073.39 109.144 1096.75 92.0187 1126.32 79.5641C1155.9 66.5905 1188.34 60.1037 1223.63 60.1037C1259.43 60.1037 1291.61 66.331 1320.15 78.7856C1348.69 90.7213 1371.01 107.846 1387.09 130.161C1403.18 151.957 1411.22 177.125 1411.22 205.667C1411.22 224.868 1406.55 241.993 1397.21 257.043C1388.39 271.573 1378.01 284.028 1366.08 294.407C1354.14 304.267 1338.31 316.202 1318.59 330.214C1300.43 343.187 1287.2 353.307 1278.89 360.572C1271.11 367.837 1267.22 375.881 1267.22 384.703V400.271C1267.22 436.597 1233.49 454.76 1166.02 454.76V394.044ZM1213.51 619.006C1192.75 619.006 1175.88 613.038 1162.91 601.102C1149.94 588.648 1143.45 572.82 1143.45 553.619C1143.45 534.418 1149.94 518.59 1162.91 506.136C1175.88 493.681 1192.75 487.454 1213.51 487.454C1234.27 487.454 1251.39 493.681 1264.88 506.136C1278.38 518.59 1285.12 534.418 1285.12 553.619C1285.12 572.82 1278.38 588.648 1264.88 601.102C1251.39 613.038 1234.27 619.006 1213.51 619.006Z" fill="url(#paint0_linear_288_10)"/>
</g>
<defs>
<linearGradient id="paint0_linear_288_10" x1="800.701" y1="342.074" x2="1604.98" y2="367.492" gradientUnits="userSpaceOnUse">
<stop/>
<stop offset="1" stop-color="#114A3C"/>
</linearGradient>
<clipPath id="clip0_288_10">
<rect width="1440" height="655" fill="white"/>
</clipPath>
</defs>
</svg>
