<svg width="29" height="18" viewBox="0 0 29 18" fill="none" xmlns="http://www.w3.org/2000/svg">
<g clip-path="url(#clip0_142_85)">
<rect x="0.393921" y="0.79541" width="16.3333" height="16.3333" rx="8.16667" fill="#B5B5B5"/>
<path d="M16.9413 7.48507C16.2596 3.47985 12.7657 0.44043 8.56159 0.44043C4.35754 0.44043 0.863624 3.47985 0.181885 7.48507L8.56159 3.28101L16.9413 7.48507ZM0.181885 10.4393C0.863624 14.4445 4.35754 17.4839 8.56159 17.4839C12.7657 17.4839 16.2596 14.4445 16.9413 10.4393L8.56159 14.6433L0.181885 10.4393Z" fill="#699635"/>
<path d="M8.56117 3.28125L0.181458 7.48531C0.0962403 7.96821 0.0394287 8.45111 0.0394287 8.96241C0.0394287 9.47371 0.0962403 9.95661 0.181458 10.4395L8.56117 14.6436L16.9409 10.4395C17.0261 9.95661 17.0829 9.47371 17.0829 8.96241C17.0829 8.45111 17.0261 7.96821 16.9409 7.48531L8.56117 3.28125Z" fill="#FFE62E"/>
<path d="M6.85718 7.93945C5.9482 7.93945 5.09602 8.13829 4.32907 8.47916C4.30066 8.6496 4.30066 8.79163 4.30066 8.96206C4.30066 11.3197 6.20385 13.2229 8.56153 13.2229C10.1523 13.2229 11.5441 12.3424 12.2827 11.0641C11.2317 9.21771 9.18646 7.93945 6.85718 7.93945Z" fill="#428BC1"/>
<path d="M12.7661 9.64378C12.7945 9.41653 12.8229 9.18929 12.8229 8.96204C12.8229 6.60436 10.9198 4.70117 8.56208 4.70117C6.88614 4.70117 5.43744 5.66697 4.72729 7.08726C5.40903 6.88842 6.11918 6.77479 6.85773 6.77479C9.27222 6.77479 11.4027 7.91103 12.7661 9.64378Z" fill="#428BC1"/>
<path d="M6.85673 6.7749C6.11818 6.7749 5.40803 6.88853 4.72629 7.08737C4.52745 7.51345 4.38542 7.96795 4.32861 8.47925C5.09557 8.13838 5.94774 7.93954 6.85673 7.93954C9.18601 7.93954 11.2312 9.18939 12.2822 11.0358C12.5379 10.6097 12.6799 10.1268 12.7651 9.64389C11.4017 7.91113 9.27122 6.7749 6.85673 6.7749Z" fill="white"/>
<path d="M5.72107 9.24634C5.87795 9.24634 6.00513 9.11916 6.00513 8.96228C6.00513 8.8054 5.87795 8.67822 5.72107 8.67822C5.56419 8.67822 5.43701 8.8054 5.43701 8.96228C5.43701 9.11916 5.56419 9.24634 5.72107 9.24634Z" fill="white"/>
<path d="M6.85828 10.9504C7.01516 10.9504 7.14233 10.8233 7.14233 10.6664C7.14233 10.5095 7.01516 10.3823 6.85828 10.3823C6.7014 10.3823 6.57422 10.5095 6.57422 10.6664C6.57422 10.8233 6.7014 10.9504 6.85828 10.9504Z" fill="white"/>
<path d="M8.56128 10.9504C8.71816 10.9504 8.84534 10.8233 8.84534 10.6664C8.84534 10.5095 8.71816 10.3823 8.56128 10.3823C8.4044 10.3823 8.27722 10.5095 8.27722 10.6664C8.27722 10.8233 8.4044 10.9504 8.56128 10.9504Z" fill="white"/>
<path d="M8.56128 12.0867C8.71816 12.0867 8.84534 11.9595 8.84534 11.8026C8.84534 11.6457 8.71816 11.5186 8.56128 11.5186C8.4044 11.5186 8.27722 11.6457 8.27722 11.8026C8.27722 11.9595 8.4044 12.0867 8.56128 12.0867Z" fill="white"/>
<path d="M10.8339 10.9504C10.9907 10.9504 11.1179 10.8233 11.1179 10.6664C11.1179 10.5095 10.9907 10.3823 10.8339 10.3823C10.677 10.3823 10.5498 10.5095 10.5498 10.6664C10.5498 10.8233 10.677 10.9504 10.8339 10.9504Z" fill="white"/>
<path d="M10.8339 12.0867C10.9907 12.0867 11.1179 11.9595 11.1179 11.8026C11.1179 11.6457 10.9907 11.5186 10.8339 11.5186C10.677 11.5186 10.5498 11.6457 10.5498 11.8026C10.5498 11.9595 10.677 12.0867 10.8339 12.0867Z" fill="white"/>
<path d="M9.69812 11.5188C9.855 11.5188 9.98218 11.3916 9.98218 11.2347C9.98218 11.0779 9.855 10.9507 9.69812 10.9507C9.54124 10.9507 9.41406 11.0779 9.41406 11.2347C9.41406 11.3916 9.54124 11.5188 9.69812 11.5188Z" fill="white"/>
<path d="M5.72107 10.3826C5.87795 10.3826 6.00513 10.2554 6.00513 10.0985C6.00513 9.94163 5.87795 9.81445 5.72107 9.81445C5.56419 9.81445 5.43701 9.94163 5.43701 10.0985C5.43701 10.2554 5.56419 10.3826 5.72107 10.3826Z" fill="white"/>
</g>
<path d="M28.2347 6.18296H21.5528C21.4852 6.18317 21.4189 6.20183 21.361 6.23693C21.3032 6.27202 21.256 6.32223 21.2246 6.38213C21.1932 6.44204 21.1787 6.50939 21.1827 6.57692C21.1867 6.64445 21.209 6.70961 21.2473 6.76539L24.5882 11.5911C24.7267 11.7912 25.06 11.7912 25.1989 11.5911L28.5398 6.76539C28.5785 6.70973 28.6011 6.64454 28.6054 6.57689C28.6096 6.50925 28.5952 6.44174 28.5637 6.3817C28.5323 6.32167 28.485 6.2714 28.427 6.23636C28.3689 6.20132 28.3024 6.18285 28.2347 6.18296Z" fill="white"/>
<defs>
<clipPath id="clip0_142_85">
<rect x="0.393921" y="0.79541" width="16.3333" height="16.3333" rx="8.16667" fill="white"/>
</clipPath>
</defs>
</svg>
