<svg width="20" height="21" viewBox="0 0 20 21" fill="none" xmlns="http://www.w3.org/2000/svg">
<path d="M19.8333 8.64167C19.0333 3.94167 14.9333 0.375 10 0.375C5.06667 0.375 0.966667 3.94167 0.166667 8.64167L10 3.70833L19.8333 8.64167ZM0.166667 12.1083C0.966667 16.8083 5.06667 20.375 10 20.375C14.9333 20.375 19.0333 16.8083 19.8333 12.1083L10 17.0417L0.166667 12.1083Z" fill="#699635"/>
<path d="M10 3.70833L0.166667 8.64167C0.0666667 9.20833 0 9.775 0 10.375C0 10.975 0.0666667 11.5417 0.166667 12.1083L10 17.0417L19.8333 12.1083C19.9333 11.5417 20 10.975 20 10.375C20 9.775 19.9333 9.20833 19.8333 8.64167L10 3.70833Z" fill="#FFE62E"/>
<path d="M8 9.175C6.93333 9.175 5.93333 9.40833 5.03333 9.80833C5 10.0083 5 10.175 5 10.375C5 13.1417 7.23333 15.375 10 15.375C11.8667 15.375 13.5 14.3417 14.3667 12.8417C13.1333 10.675 10.7333 9.175 8 9.175Z" fill="#428BC1"/>
<path d="M14.9333 11.175C14.9667 10.9083 15 10.6417 15 10.375C15 7.60833 12.7667 5.375 10 5.375C8.03333 5.375 6.33333 6.50833 5.5 8.175C6.3 7.94167 7.13333 7.80833 8 7.80833C10.8333 7.80833 13.3333 9.14167 14.9333 11.175Z" fill="#428BC1"/>
<path d="M8 7.80833C7.13333 7.80833 6.3 7.94167 5.5 8.175C5.26667 8.675 5.1 9.20833 5.03333 9.80833C5.93333 9.40833 6.93333 9.175 8 9.175C10.7333 9.175 13.1333 10.6417 14.3667 12.8083C14.6667 12.3083 14.8333 11.7417 14.9333 11.175C13.3333 9.14167 10.8333 7.80833 8 7.80833Z" fill="white"/>
<path d="M6.66667 10.7083C6.85076 10.7083 7 10.5591 7 10.375C7 10.1909 6.85076 10.0417 6.66667 10.0417C6.48257 10.0417 6.33333 10.1909 6.33333 10.375C6.33333 10.5591 6.48257 10.7083 6.66667 10.7083Z" fill="white"/>
<path d="M8 12.7083C8.1841 12.7083 8.33333 12.5591 8.33333 12.375C8.33333 12.1909 8.1841 12.0417 8 12.0417C7.81591 12.0417 7.66667 12.1909 7.66667 12.375C7.66667 12.5591 7.81591 12.7083 8 12.7083Z" fill="white"/>
<path d="M10 12.7083C10.1841 12.7083 10.3333 12.5591 10.3333 12.375C10.3333 12.1909 10.1841 12.0417 10 12.0417C9.81591 12.0417 9.66667 12.1909 9.66667 12.375C9.66667 12.5591 9.81591 12.7083 10 12.7083Z" fill="white"/>
<path d="M10 14.0417C10.1841 14.0417 10.3333 13.8924 10.3333 13.7083C10.3333 13.5242 10.1841 13.375 10 13.375C9.81591 13.375 9.66667 13.5242 9.66667 13.7083C9.66667 13.8924 9.81591 14.0417 10 14.0417Z" fill="white"/>
<path d="M12.6667 12.7083C12.8508 12.7083 13 12.5591 13 12.375C13 12.1909 12.8508 12.0417 12.6667 12.0417C12.4826 12.0417 12.3333 12.1909 12.3333 12.375C12.3333 12.5591 12.4826 12.7083 12.6667 12.7083Z" fill="white"/>
<path d="M12.6667 14.0417C12.8508 14.0417 13 13.8924 13 13.7083C13 13.5242 12.8508 13.375 12.6667 13.375C12.4826 13.375 12.3333 13.5242 12.3333 13.7083C12.3333 13.8924 12.4826 14.0417 12.6667 14.0417Z" fill="white"/>
<path d="M11.3333 13.375C11.5174 13.375 11.6667 13.2258 11.6667 13.0417C11.6667 12.8576 11.5174 12.7083 11.3333 12.7083C11.1492 12.7083 11 12.8576 11 13.0417C11 13.2258 11.1492 13.375 11.3333 13.375Z" fill="white"/>
<path d="M6.66667 12.0417C6.85076 12.0417 7 11.8924 7 11.7083C7 11.5242 6.85076 11.375 6.66667 11.375C6.48257 11.375 6.33333 11.5242 6.33333 11.7083C6.33333 11.8924 6.48257 12.0417 6.66667 12.0417Z" fill="white"/>
</svg>
