<svg width="20" height="21" viewBox="0 0 20 21" fill="none" xmlns="http://www.w3.org/2000/svg">
<path d="M0 10.375C0 14.7417 2.8 18.4417 6.66667 19.8083V0.941667C2.8 2.30833 0 6.00833 0 10.375Z" fill="#2A5F9E"/>
<path d="M20 10.375C20 6.00833 17.2333 2.30833 13.3333 0.941667V19.8083C17.2333 18.4417 20 14.7417 20 10.375Z" fill="#ED4C5C"/>
<path d="M6.66667 19.8083C7.7 20.175 8.83333 20.375 10 20.375C11.1667 20.375 12.3 20.175 13.3333 19.8083V0.941667C12.3 0.575 11.1667 0.375 10 0.375C8.83333 0.375 7.7 0.575 6.66667 0.941667V19.8083Z" fill="#FFCE31"/>
</svg>
