<svg width="14" height="14" viewBox="0 0 14 14" fill="none" xmlns="http://www.w3.org/2000/svg">
<path d="M6.68751 0C5.36484 0 4.07188 0.392215 2.97213 1.12705C1.87237 1.86188 1.01522 2.90633 0.509059 4.12831C0.0028976 5.35029 -0.129537 6.69492 0.128502 7.99217C0.38654 9.28942 1.02346 10.481 1.95873 11.4163C2.89399 12.3515 4.08559 12.9885 5.38284 13.2465C6.68009 13.5045 8.02472 13.3721 9.2467 12.866C10.4687 12.3598 11.5131 11.5026 12.248 10.4029C12.9828 9.30313 13.375 8.01017 13.375 6.6875C13.373 4.91447 12.6678 3.21462 11.4141 1.9609C10.1604 0.707173 8.46054 0.00196676 6.68751 0ZM11.1384 9.37613H9.6523L9.04671 8.54514L9.74642 6.50546L10.7217 6.19213L11.8734 7.07513C11.8137 7.88944 11.5618 8.678 11.1384 9.37613ZM1.5016 7.07204L2.65333 6.19213L3.62859 6.50855L4.3283 8.54514L3.72457 9.37613H2.23846C1.81393 8.67725 1.56138 7.88757 1.5016 7.07204ZM5.68748 7.92593L5.09675 6.20638L6.68751 5.11223L8.27827 6.20638L7.68754 7.92593H5.68748ZM10.6821 3.36047L10.2622 4.77537L9.28325 5.09365L7.43056 3.81993V2.81494L8.74453 1.91151C9.49497 2.23604 10.1586 2.73236 10.6821 3.36047ZM4.63048 1.91151L5.94445 2.81494V3.81993L4.09176 5.09365L3.11279 4.77537L2.69296 3.36047C3.21637 2.73236 3.88004 2.23604 4.63048 1.91151ZM5.47137 11.744L4.93761 10.235L5.53515 9.41204H7.83986L8.4374 10.235L7.90364 11.744C7.10439 11.9372 6.27062 11.9372 5.47137 11.744Z" fill="black"/>
</svg>
