<svg width="17" height="17" viewBox="0 0 17 17" fill="none" xmlns="http://www.w3.org/2000/svg">
<path d="M12.2475 1.68397C11.0483 0.944019 9.67046 0.510254 8.16504 0.510254V1.68397H12.2475Z" fill="#ED4C5C"/>
<path d="M8.16504 2.8578H13.6764C13.2426 2.42404 12.7579 2.01579 12.2475 1.68408H8.16504V2.8578Z" fill="white"/>
<path d="M8.16504 4.03163H14.6205C14.3398 3.59786 14.0336 3.21513 13.7019 2.85791H8.16504V4.03163Z" fill="#ED4C5C"/>
<path d="M8.16504 5.20497H15.2329C15.0543 4.79672 14.8501 4.38847 14.6205 4.03125H8.16504V5.20497Z" fill="white"/>
<path d="M8.16504 6.3788H15.6156C15.5135 5.97055 15.386 5.58781 15.2329 5.20508H8.16504V6.3788Z" fill="#ED4C5C"/>
<path d="M8.16504 7.57802H15.7942C15.7687 7.16977 15.6921 6.78703 15.6156 6.4043H8.16504V7.57802Z" fill="white"/>
<path d="M15.7941 7.57812H8.16494V8.16498H0.510254C0.510254 8.36911 0.510254 8.54772 0.53577 8.75184H15.7941C15.8196 8.54772 15.8196 8.36911 15.8196 8.16498C15.8196 7.96086 15.8196 7.75673 15.7941 7.57812Z" fill="#ED4C5C"/>
<path d="M0.714498 9.92567H15.6156C15.7177 9.54294 15.7687 9.1602 15.7942 8.75195H0.535889C0.561404 9.13469 0.612436 9.54294 0.714498 9.92567Z" fill="white"/>
<path d="M1.09709 11.0995H15.2327C15.3858 10.7168 15.5134 10.334 15.6155 9.92578H0.714355C0.816418 10.334 0.943996 10.7168 1.09709 11.0995Z" fill="#ED4C5C"/>
<path d="M1.70954 12.2728H14.6204C14.8501 11.8901 15.0542 11.5074 15.2328 11.0991H1.09717C1.27578 11.5074 1.4799 11.8901 1.70954 12.2728Z" fill="white"/>
<path d="M2.62804 13.4467H13.7018C14.0335 13.0894 14.3652 12.6812 14.6204 12.2729H1.70947C1.96463 12.7067 2.29633 13.0894 2.62804 13.4467Z" fill="#ED4C5C"/>
<path d="M4.05705 14.6205H12.2731C12.8089 14.2888 13.2682 13.8805 13.702 13.4468H2.62817C3.06194 13.9061 3.54674 14.2888 4.05705 14.6205Z" fill="white"/>
<path d="M8.1649 15.8198C9.67032 15.8198 11.0737 15.3861 12.2729 14.6206H4.05688C5.25612 15.3861 6.65948 15.8198 8.1649 15.8198Z" fill="#ED4C5C"/>
<path d="M4.08244 1.68397C3.54661 2.01568 3.06182 2.42393 2.62805 2.85769C2.27083 3.21491 1.96464 3.62316 1.70949 4.03141C1.47985 4.41414 1.25021 4.79688 1.09711 5.20513C0.94402 5.58786 0.816441 5.9706 0.714379 6.37885C0.612316 6.76158 0.561285 7.14432 0.53577 7.55257C0.510254 7.75669 0.510254 7.96082 0.510254 8.16494H8.16494V0.510254C6.65952 0.510254 5.28168 0.944019 4.08244 1.68397Z" fill="#428BC1"/>
<path d="M6.37881 0.765625L6.50638 1.14836H6.88912L6.58293 1.40352L6.68499 1.78625L6.37881 1.55661L6.07262 1.78625L6.17468 1.40352L5.86849 1.14836H6.25123L6.37881 0.765625ZM7.39943 2.29656L7.52701 2.6793H7.90974L7.60356 2.93445L7.70562 3.31719L7.39943 3.08755L7.09324 3.31719L7.19531 2.93445L6.88912 2.6793H7.27185L7.39943 2.29656ZM5.35818 2.29656L5.48576 2.6793H5.86849L5.56231 2.93445L5.66437 3.31719L5.35818 3.08755L5.05199 3.31719L5.15406 2.93445L4.84787 2.6793H5.2306L5.35818 2.29656ZM6.37881 3.8275L6.50638 4.21023H6.88912L6.58293 4.46539L6.68499 4.84812L6.37881 4.61848L6.07262 4.84812L6.17468 4.46539L5.86849 4.21023H6.25123L6.37881 3.8275ZM4.33756 3.8275L4.46513 4.21023H4.84787L4.54168 4.46539L4.64374 4.84812L4.33756 4.61848L4.03137 4.84812L4.13343 4.46539L3.82724 4.21023H4.20998L4.33756 3.8275ZM2.29631 3.8275L2.42388 4.21023H2.80662L2.50043 4.46539L2.60249 4.84812L2.29631 4.61848L1.99012 4.84812L2.09218 4.46539L1.78599 4.21023H2.16873L2.29631 3.8275ZM7.39943 5.35844L7.52701 5.74117H7.90974L7.60356 5.99633L7.70562 6.37906L7.39943 6.14942L7.09324 6.37906L7.19531 5.99633L6.88912 5.74117H7.27185L7.39943 5.35844ZM5.35818 5.35844L5.48576 5.74117H5.86849L5.56231 5.99633L5.66437 6.37906L5.35818 6.14942L5.05199 6.37906L5.15406 5.99633L4.84787 5.74117H5.2306L5.35818 5.35844ZM3.31693 5.35844L3.44451 5.74117H3.82724L3.52106 5.99633L3.62312 6.37906L3.31693 6.14942L3.01074 6.37906L3.11281 5.99633L2.80662 5.74117H3.18935L3.31693 5.35844ZM6.37881 6.88937L6.50638 7.27211H6.88912L6.58293 7.52727L6.68499 7.91L6.37881 7.68036L6.07262 7.91L6.17468 7.52727L5.86849 7.27211H6.25123L6.37881 6.88937ZM4.33756 6.88937L4.46513 7.27211H4.84787L4.54168 7.52727L4.64374 7.91L4.33756 7.68036L4.03137 7.91L4.13343 7.52727L3.82724 7.27211H4.20998L4.33756 6.88937ZM2.29631 6.88937L2.42388 7.27211H2.80662L2.50043 7.52727L2.60249 7.91L2.29631 7.68036L1.99012 7.91L2.09218 7.52727L1.78599 7.27211H2.16873L2.29631 6.88937ZM3.01074 3.31719L3.31693 3.08755L3.62312 3.31719L3.49554 2.93445L3.80173 2.6793H3.41899L3.31693 2.29656L3.18935 2.6793H2.83213L3.13832 2.90894L3.01074 3.31719ZM0.969494 6.37906L1.27568 6.14942L1.58187 6.37906L1.45429 5.99633L1.76048 5.74117H1.40326L1.27568 5.35844L1.1481 5.74117H0.892947C0.892947 5.76669 0.867432 5.7922 0.867432 5.81772L1.07156 5.97081L0.969494 6.37906Z" fill="white"/>
</svg>
